HIERARCHY
ROOT root
{
	OFFSET 0.000000 0.000000 0.000000
	CHANNELS 6 Xposition Yposition Zposition Zrotation Yrotation Xrotation
	JOINT lhip
	{
		OFFSET 0.058581 -0.082280 -0.017664
		CHANNELS 3 Zrotation Yrotation Xrotation
		JOINT lknee
		{
			OFFSET 0.043451 -0.386469 0.008037
			CHANNELS 3 Zrotation Yrotation Xrotation
			JOINT lankle
			{
				OFFSET -0.014790 -0.426874 -0.037428
				CHANNELS 3 Zrotation Yrotation Xrotation
				JOINT ltoe
				{
					OFFSET 0.041054 -0.060286 0.122042
					CHANNELS 3 Zrotation Yrotation Xrotation
					End Site
					{
						OFFSET 0.000000 0.000000 0.000000
					}
				}
			}
		}
	}
	JOINT rhip
	{
		OFFSET -0.060310 -0.090513 -0.013543
		CHANNELS 3 Zrotation Yrotation Xrotation
		JOINT rknee
		{
			OFFSET -0.043257 -0.383688 -0.004843
			CHANNELS 3 Zrotation Yrotation Xrotation
			JOINT rankle
			{
				OFFSET 0.019056 -0.420046 -0.034562
				CHANNELS 3 Zrotation Yrotation Xrotation
				JOINT rtoe
				{
					OFFSET -0.034840 -0.062106 0.130323
					CHANNELS 3 Zrotation Yrotation Xrotation
					End Site
					{
						OFFSET 0.000000 0.000000 0.000000
					}
				}
			}
		}
	}
	JOINT lowerback
	{
		OFFSET 0.004439 0.124404 -0.038385
		CHANNELS 3 Zrotation Yrotation Xrotation
		JOINT upperback
		{
			OFFSET 0.004488 0.137956 0.026820
			CHANNELS 3 Zrotation Yrotation Xrotation
			JOINT chest
			{
				OFFSET -0.002265 0.056032 0.002855
				CHANNELS 3 Zrotation Yrotation Xrotation
				JOINT lowerneck
				{
					OFFSET -0.013390 0.211636 -0.033468
					CHANNELS 3 Zrotation Yrotation Xrotation
					JOINT upperneck
					{
						OFFSET 0.010113 0.088937 0.050410
						CHANNELS 3 Zrotation Yrotation Xrotation
						End Site
						{
							OFFSET 0.000000 0.000000 0.000000
						}
					}
				}
				JOINT lclavicle
				{
					OFFSET 0.071702 0.114000 -0.018898
					CHANNELS 3 Zrotation Yrotation Xrotation
					JOINT lshoulder
					{
						OFFSET 0.122921 0.045205 -0.019046
						CHANNELS 3 Zrotation Yrotation Xrotation
						JOINT lelbow
						{
							OFFSET 0.255332 -0.015649 -0.022946
							CHANNELS 3 Zrotation Yrotation Xrotation
							JOINT lwrist
							{
								OFFSET 0.265709 0.012698 -0.007375
								CHANNELS 3 Zrotation Yrotation Xrotation
								End Site
								{
									OFFSET 0.000000 0.000000 0.000000
								}
							}
						}
					}
				}
				JOINT rclavicle
				{
					OFFSET -0.082954 0.112472 -0.023707
					CHANNELS 3 Zrotation Yrotation Xrotation
					JOINT rshoulder
					{
						OFFSET -0.113228 0.046853 -0.008472
						CHANNELS 3 Zrotation Yrotation Xrotation
						JOINT relbow
						{
							OFFSET -0.260127 -0.014369 -0.031269
							CHANNELS 3 Zrotation Yrotation Xrotation
							JOINT rwrist
							{
								OFFSET -0.269108 0.006794 -0.006027
								CHANNELS 3 Zrotation Yrotation Xrotation
								End Site
								{
									OFFSET 0.000000 0.000000 0.000000
								}
							}
						}
					}
				}
			}
		}
	}
}
MOTION
Frames: 7
Frame Time: 0.033333
1.289749 0.705637 0.987137 -93.011476 0.474154 85.364939 -0.773611 0.127760 1.726789 0.278723 -7.940249 5.450107 2.597798 9.949547 -13.903743 0.000000 -0.000000 0.000000 1.622354 -2.322889 -2.223503 -2.324768 -0.497162 11.592902 3.176686 -8.255671 -11.618370 0.000000 -0.000000 0.000000 -0.372903 1.374305 13.523567 -1.585401 -1.266170 -1.775567 -0.346391 -0.532203 3.440384 4.400518 2.109082 -10.156226 4.038443 -2.082598 2.854550 -23.811416 -0.517245 -1.217375 -52.018431 -9.547720 4.868559 7.471350 -19.163343 0.428991 -1.241963 -1.956841 -2.409768 21.059088 1.982724 -0.639657 57.965389 2.065931 14.372395 -13.268968 33.164019 -0.041015 3.447304 2.828112 -2.282467 
1.289123 0.705295 0.987375 -93.206410 0.592140 85.372960 -0.731662 0.282129 2.014100 0.437965 -8.054151 4.995568 2.683096 10.107959 -13.618762 0.000000 -0.000000 0.000000 1.666656 -2.246358 -2.370684 -2.127355 -0.696426 11.782493 3.162241 -8.552230 -11.501329 0.000000 -0.000000 0.000000 -0.344145 1.166667 13.506500 -1.513286 -1.254932 -1.718001 -0.282407 -0.609628 3.193512 4.151758 2.161806 -9.834891 3.980298 -1.867039 2.883169 -23.152362 -0.768657 -1.198808 -50.932158 -9.236459 4.527014 6.965858 -17.834811 1.064060 -2.026010 -1.546039 -1.979709 20.479522 2.118256 -0.739480 56.927583 1.855307 14.656645 -11.973064 32.951569 2.016703 4.219902 2.315827 -1.489528 
1.288017 0.705310 0.987344 -93.471082 0.738868 85.208961 -0.628645 0.420374 2.531557 0.540418 -8.209272 4.575523 2.776048 10.449865 -13.307230 0.000000 -0.000000 0.000000 1.818780 -2.447052 -2.266656 -1.813399 -0.728776 11.753924 2.783934 -9.511224 -11.382435 0.000000 -0.000000 0.000000 -0.304608 1.055511 13.221407 -1.424924 -1.285748 -1.528016 -0.091522 -0.730800 3.325810 3.533780 1.820581 -9.300594 3.617313 -1.779372 2.814313 -22.243229 -1.056580 -0.993185 -49.771330 -8.600519 4.434502 4.865115 -16.927313 3.134509 -2.574154 -1.171880 -1.860301 19.650136 2.797148 -0.585848 55.200904 1.519140 15.655539 -8.456442 33.191984 7.289276 4.042948 2.001866 0.703308 
1.286778 0.705557 0.987626 -94.203118 0.828251 85.187957 -0.476418 0.774084 3.086490 0.567106 -8.207130 3.886434 2.857273 11.047810 -12.982374 0.000000 -0.000000 0.000000 1.983948 -2.774871 -2.214051 -1.546359 -0.408321 11.406913 2.275547 -10.442995 -10.749215 0.000000 -0.000000 0.000000 -0.068308 0.804092 12.774618 -1.450687 -1.221780 -1.597950 -0.131751 -0.719271 3.451382 2.393878 1.351033 -8.593770 2.675029 -2.188533 3.199794 -21.037940 -1.403673 -0.761422 -48.039330 -6.837531 5.620609 0.017308 -15.953934 10.883786 -4.043419 -0.916445 0.927690 18.940431 3.928827 -0.478754 52.613474 1.371269 18.007424 -1.788260 32.201138 18.412828 3.303867 2.078078 6.608568 
1.285678 0.706116 0.988330 -95.039281 1.027918 84.749223 -0.210876 0.840293 4.015809 0.640443 -8.113997 3.455791 0.973040 11.568523 -13.842276 0.000000 -0.000000 0.000000 2.656764 -2.048503 -1.328976 -2.384562 -0.918097 10.729736 3.658317 -9.981169 -11.427621 0.000000 -0.000000 0.000000 0.115996 1.225411 12.913783 -1.040317 -1.717630 -1.147156 -0.328285 0.206662 2.689289 1.558684 1.897349 -6.269198 2.350552 -3.956779 1.895244 -19.790234 -2.001245 0.236180 -47.841654 -6.943359 7.014213 -3.108085 -13.626509 14.562311 -9.800232 -2.317731 1.069417 17.908519 3.386446 -0.471291 52.694269 1.290232 17.760115 1.443147 32.405765 27.419394 8.569233 -0.138307 10.478536 
1.283681 0.706453 0.988082 -96.114464 0.843760 84.559640 -0.417439 1.346573 4.772048 0.801744 -8.051015 2.874349 0.968628 12.083130 -13.749904 0.000000 -0.000000 0.000000 2.535143 -2.099558 -0.514118 -2.470720 0.131549 9.652012 3.746975 -9.800422 -11.537611 0.000000 -0.000000 0.000000 0.106856 1.404590 12.475855 -1.198731 -1.509648 -0.873614 -0.434402 0.333613 2.334625 0.924238 1.879156 -5.672379 1.837248 -4.337206 3.156967 -19.736128 -2.599107 1.099484 -47.377665 -5.506775 7.988000 -5.182773 -12.704087 18.461188 -11.611193 -1.650629 2.808994 17.953792 4.485608 0.447899 52.599253 1.041599 18.856193 3.666650 31.192442 31.594173 9.751721 -1.643779 12.651737 
1.282455 0.706735 0.987374 -97.013881 0.664424 84.354811 -0.600259 1.538901 5.308843 0.838314 -7.628328 2.599199 1.093928 12.377484 -13.741798 0.000000 -0.000000 0.000000 2.446917 -1.967131 0.324559 -2.600554 0.870948 8.490718 3.573027 -9.578079 -11.690148 0.000000 -0.000000 0.000000 0.122779 1.492302 12.275513 -1.381283 -1.521099 -0.773035 -0.650624 0.639338 1.989773 0.904241 2.055094 -5.367612 1.558067 -4.432884 4.505917 -20.312407 -2.411732 1.780035 -47.567600 -4.397032 8.264686 -5.944943 -12.107612 19.970888 -13.077306 -1.100092 3.550650 18.684592 5.106752 1.276185 53.685569 0.921289 19.400123 2.960756 29.915625 32.038184 10.623509 -2.559520 14.187875 
